<svg width="24" height="24" viewBox="0 0 24 24" fill="none" xmlns="http://www.w3.org/2000/svg">
<mask id="path-1-inside-1_7174_9205" fill="white">
<path d="M16.2157 10.937C16.0596 10.8488 15.8615 10.9037 15.7732 11.0598C15.685 11.2158 15.74 11.4144 15.8962 11.5026C16.136 11.6391 16.2823 11.7914 16.379 11.9488C15.9787 12.0894 15.6238 12.1472 15.3103 12.1472C14.8514 12.1468 14.4761 12.0257 14.1596 11.8401C13.8439 11.6541 13.5886 11.3998 13.3951 11.136C13.0761 10.7011 12.661 10.3137 12.1718 10.0311C11.6832 9.74931 11.118 9.57324 10.5115 9.57324C9.97959 9.57287 9.41906 9.70979 8.86369 10.0148C8.63662 10.1393 8.4398 10.2849 8.26837 10.4439C7.59272 10.704 7.01053 10.7976 6.51802 10.7976C5.81634 10.7976 5.29219 10.609 4.94175 10.4238C4.76677 10.3314 4.63589 10.2395 4.55119 10.1729C4.50872 10.1392 4.47778 10.1125 4.45856 10.0951L4.43859 10.0759L4.43545 10.073H4.43531C4.31086 9.94524 4.10611 9.94196 3.9773 10.0659C3.8483 10.1904 3.84455 10.3959 3.969 10.5249C3.98709 10.5433 4.21036 10.7717 4.63777 10.9981C4.82484 11.0972 5.05416 11.1946 5.31905 11.2741C5.24869 11.3731 5.15259 11.5179 5.04792 11.7023C4.84669 12.0572 4.6155 12.5554 4.4977 13.1431C4.46255 13.3186 4.57659 13.4897 4.75242 13.5251C4.92825 13.56 5.09948 13.446 5.13445 13.27C5.23327 12.7752 5.43511 12.3353 5.61281 12.0227C5.70145 11.8663 5.78367 11.7418 5.84278 11.6581C5.87231 11.6161 5.89603 11.5841 5.91188 11.5633C5.91975 11.5532 5.9258 11.5454 5.92936 11.5408L5.93311 11.5362L5.93353 11.5358L5.93372 11.5353C5.96367 11.4987 5.98369 11.4575 5.99508 11.4143C6.16031 11.4346 6.33384 11.4471 6.51802 11.4467C6.85945 11.4471 7.23337 11.4068 7.63603 11.3152C7.43644 11.7455 7.35431 12.1946 7.35408 12.6061C7.35487 13.0207 7.43377 13.3969 7.57444 13.6965C7.65117 13.8588 7.84491 13.9279 8.007 13.8513C8.16909 13.7747 8.23838 13.5808 8.16159 13.419V13.4185C8.07131 13.2304 8.00259 12.9341 8.00367 12.6061C8.00344 12.2524 8.0798 11.8629 8.26294 11.5075C8.44706 11.1521 8.733 10.8279 9.17602 10.584C9.64355 10.3281 10.0899 10.2232 10.5115 10.2228C10.9915 10.2228 11.4437 10.3614 11.8473 10.5936C12.2506 10.8262 12.6029 11.1537 12.8713 11.5199C13.1074 11.842 13.4234 12.16 13.83 12.3997C14.2357 12.6394 14.7339 12.7971 15.3103 12.7967C15.6916 12.7967 16.106 12.7276 16.5509 12.5761L16.5519 12.5994C16.5519 12.7584 16.5271 12.9032 16.5024 13.0056C16.4901 13.0568 16.4778 13.0972 16.4693 13.1234C16.4649 13.1363 16.4616 13.1458 16.4595 13.1512L16.4577 13.1562L16.4575 13.157H16.4577C16.3919 13.3231 16.4729 13.5112 16.6389 13.5778C16.8053 13.6444 16.9945 13.5632 17.0611 13.3967C17.0694 13.3734 17.2001 13.0493 17.2013 12.5994C17.2013 12.3413 17.1562 12.0384 17.0062 11.7392C16.8572 11.4402 16.6 11.153 16.2157 10.937Z"/>
</mask>
<path d="M16.2157 10.937C16.0596 10.8488 15.8615 10.9037 15.7732 11.0598C15.685 11.2158 15.74 11.4144 15.8962 11.5026C16.136 11.6391 16.2823 11.7914 16.379 11.9488C15.9787 12.0894 15.6238 12.1472 15.3103 12.1472C14.8514 12.1468 14.4761 12.0257 14.1596 11.8401C13.8439 11.6541 13.5886 11.3998 13.3951 11.136C13.0761 10.7011 12.661 10.3137 12.1718 10.0311C11.6832 9.74931 11.118 9.57324 10.5115 9.57324C9.97959 9.57287 9.41906 9.70979 8.86369 10.0148C8.63662 10.1393 8.4398 10.2849 8.26837 10.4439C7.59272 10.704 7.01053 10.7976 6.51802 10.7976C5.81634 10.7976 5.29219 10.609 4.94175 10.4238C4.76677 10.3314 4.63589 10.2395 4.55119 10.1729C4.50872 10.1392 4.47778 10.1125 4.45856 10.0951L4.43859 10.0759L4.43545 10.073H4.43531C4.31086 9.94524 4.10611 9.94196 3.9773 10.0659C3.8483 10.1904 3.84455 10.3959 3.969 10.5249C3.98709 10.5433 4.21036 10.7717 4.63777 10.9981C4.82484 11.0972 5.05416 11.1946 5.31905 11.2741C5.24869 11.3731 5.15259 11.5179 5.04792 11.7023C4.84669 12.0572 4.6155 12.5554 4.4977 13.1431C4.46255 13.3186 4.57659 13.4897 4.75242 13.5251C4.92825 13.56 5.09948 13.446 5.13445 13.27C5.23327 12.7752 5.43511 12.3353 5.61281 12.0227C5.70145 11.8663 5.78367 11.7418 5.84278 11.6581C5.87231 11.6161 5.89603 11.5841 5.91188 11.5633C5.91975 11.5532 5.9258 11.5454 5.92936 11.5408L5.93311 11.5362L5.93353 11.5358L5.93372 11.5353C5.96367 11.4987 5.98369 11.4575 5.99508 11.4143C6.16031 11.4346 6.33384 11.4471 6.51802 11.4467C6.85945 11.4471 7.23337 11.4068 7.63603 11.3152C7.43644 11.7455 7.35431 12.1946 7.35408 12.6061C7.35487 13.0207 7.43377 13.3969 7.57444 13.6965C7.65117 13.8588 7.84491 13.9279 8.007 13.8513C8.16909 13.7747 8.23838 13.5808 8.16159 13.419V13.4185C8.07131 13.2304 8.00259 12.9341 8.00367 12.6061C8.00344 12.2524 8.0798 11.8629 8.26294 11.5075C8.44706 11.1521 8.733 10.8279 9.17602 10.584C9.64355 10.3281 10.0899 10.2232 10.5115 10.2228C10.9915 10.2228 11.4437 10.3614 11.8473 10.5936C12.2506 10.8262 12.6029 11.1537 12.8713 11.5199C13.1074 11.842 13.4234 12.16 13.83 12.3997C14.2357 12.6394 14.7339 12.7971 15.3103 12.7967C15.6916 12.7967 16.106 12.7276 16.5509 12.5761L16.5519 12.5994C16.5519 12.7584 16.5271 12.9032 16.5024 13.0056C16.4901 13.0568 16.4778 13.0972 16.4693 13.1234C16.4649 13.1363 16.4616 13.1458 16.4595 13.1512L16.4577 13.1562L16.4575 13.157H16.4577C16.3919 13.3231 16.4729 13.5112 16.6389 13.5778C16.8053 13.6444 16.9945 13.5632 17.0611 13.3967C17.0694 13.3734 17.2001 13.0493 17.2013 12.5994C17.2013 12.3413 17.1562 12.0384 17.0062 11.7392C16.8572 11.4402 16.6 11.153 16.2157 10.937Z" fill="#90A4AE"/>
<path d="M16.2157 10.937L15.3298 12.504L15.3338 12.5062L16.2157 10.937ZM15.7732 11.0598L14.2065 10.1736L14.2063 10.1739L15.7732 11.0598ZM15.8962 11.5026L16.7869 9.93842L16.7811 9.93511L15.8962 11.5026ZM16.379 11.9488L16.9755 13.647L19.0808 12.9075L17.9125 11.0063L16.379 11.9488ZM15.3103 12.1472L15.3086 13.9472H15.3103V12.1472ZM14.1596 11.8401L13.2458 13.3909L13.2491 13.3929L14.1596 11.8401ZM13.3951 11.136L14.8465 10.0713L14.8465 10.0713L13.3951 11.136ZM12.1718 10.0311L13.0721 8.47243L13.0711 8.47183L12.1718 10.0311ZM10.5115 9.57324L10.5102 11.3732H10.5115V9.57324ZM8.86369 10.0148L9.72884 11.5933L9.73018 11.5925L8.86369 10.0148ZM8.26837 10.4439L8.91506 12.1237L9.23829 11.9992L9.49226 11.7637L8.26837 10.4439ZM4.94175 10.4238L5.7828 8.83241L5.78218 8.83209L4.94175 10.4238ZM4.55119 10.1729L3.43224 11.5829L3.43901 11.5882L4.55119 10.1729ZM4.45856 10.0951L3.21194 11.3935L3.23025 11.4111L3.24905 11.4282L4.45856 10.0951ZM4.43859 10.0759L5.68522 8.7775L5.67326 8.76601L5.66108 8.75475L4.43859 10.0759ZM4.43545 10.073L5.65794 8.75184L5.14047 8.27302H4.43545V10.073ZM4.43531 10.073L3.14584 11.3289L3.67578 11.873H4.43531V10.073ZM3.9773 10.0659L2.72904 8.76908L2.72778 8.77029L3.9773 10.0659ZM3.969 10.5249L2.67358 11.7747L2.68077 11.7822L2.68804 11.7895L3.969 10.5249ZM4.63777 10.9981L3.79518 12.5888L3.79553 12.5889L4.63777 10.9981ZM5.31905 11.2741L6.78648 12.3165L8.23937 10.2712L5.83647 9.55003L5.31905 11.2741ZM5.04792 11.7023L3.48262 10.8135L3.48203 10.8146L5.04792 11.7023ZM4.4977 13.1431L2.73282 12.7893L2.73273 12.7897L4.4977 13.1431ZM4.75242 13.5251L4.39769 15.2898L4.40177 15.2906L4.75242 13.5251ZM5.13445 13.27L3.3693 12.9175L3.36898 12.9192L5.13445 13.27ZM5.61281 12.0227L7.1776 12.9124L7.17896 12.91L5.61281 12.0227ZM5.84278 11.6581L7.31294 12.6967L7.31523 12.6935L5.84278 11.6581ZM5.91188 11.5633L4.49604 10.4518L4.48777 10.4623L4.47965 10.473L5.91188 11.5633ZM5.92936 11.5408L4.53503 10.4024L4.52078 10.4199L4.50696 10.4377L5.92936 11.5408ZM5.93311 11.5362L4.66032 10.2634L4.59616 10.3275L4.53878 10.3978L5.93311 11.5362ZM5.93353 11.5358L7.20632 12.8086L7.44286 12.572L7.57862 12.2663L5.93353 11.5358ZM5.93372 11.5353L4.5406 10.3955L4.38704 10.5832L4.28863 10.8048L5.93372 11.5353ZM5.99508 11.4143L6.21503 9.62775L4.65466 9.43563L4.25439 10.956L5.99508 11.4143ZM6.51802 11.4467L6.52024 9.64669L6.51389 9.6467L6.51802 11.4467ZM7.63603 11.3152L9.26893 12.0726L10.8113 8.74736L7.23697 9.56L7.63603 11.3152ZM7.35408 12.6061L5.55407 12.6051L5.55408 12.6096L7.35408 12.6061ZM7.57444 13.6965L5.94507 14.4615L5.9471 14.4658L7.57444 13.6965ZM8.007 13.8513L8.77563 15.479L8.77602 15.4788L8.007 13.8513ZM8.16159 13.419H6.36159V13.8243L6.5353 14.1904L8.16159 13.419ZM8.16159 13.4185H9.96159V13.009L9.78437 12.6397L8.16159 13.4185ZM8.00367 12.6061L9.80368 12.6121L9.80367 12.605L8.00367 12.6061ZM8.26294 11.5075L6.66468 10.6795L6.66288 10.683L8.26294 11.5075ZM9.17602 10.584L8.31169 9.0051L8.30793 9.00717L9.17602 10.584ZM10.5115 10.2228L10.5115 8.42279L10.5099 8.42279L10.5115 10.2228ZM11.8473 10.5936L12.7468 9.03441L12.7448 9.03327L11.8473 10.5936ZM12.8713 11.5199L11.4194 12.5839L11.4196 12.5842L12.8713 11.5199ZM13.83 12.3997L14.7455 10.85L14.7441 10.8491L13.83 12.3997ZM15.3103 12.7967V10.9967L15.3089 10.9967L15.3103 12.7967ZM16.5509 12.5761L18.3491 12.4965L18.2429 10.0984L15.9706 10.8722L16.5509 12.5761ZM16.5519 12.5994H18.3519V12.5596L18.3501 12.5198L16.5519 12.5994ZM16.5024 13.0056L14.7528 12.5826L14.7521 12.5856L16.5024 13.0056ZM16.4693 13.1234L18.1744 13.7L18.1777 13.6903L18.1809 13.6806L16.4693 13.1234ZM16.4595 13.1512L14.7783 12.508L14.7736 12.5208L16.4595 13.1512ZM16.4577 13.1562L14.7717 12.5258L14.7317 12.6329L14.7055 12.7441L16.4577 13.1562ZM16.4575 13.157L14.7053 12.7449L14.185 14.957H16.4575V13.157ZM16.4577 13.157L18.1312 13.8197L19.1064 11.357H16.4577V13.157ZM16.6389 13.5778L15.9691 15.2485L15.9701 15.2489L16.6389 13.5778ZM17.0611 13.3967L18.7323 14.0655L18.7451 14.0333L18.7568 14.0006L17.0611 13.3967ZM17.2013 12.5994L19.0013 12.6042V12.5994H17.2013ZM17.0062 11.7392L15.395 12.5419L15.3971 12.546L17.0062 11.7392ZM17.1015 9.37009C16.0805 8.79289 14.7843 9.15208 14.2065 10.1736L17.34 11.946C16.9387 12.6554 16.0387 12.9047 15.3298 12.504L17.1015 9.37009ZM14.2063 10.1739C13.6296 11.1941 13.9874 12.4921 15.0114 13.0701L16.7811 9.93511C17.4926 10.3367 17.7405 11.2375 17.3402 11.9456L14.2063 10.1739ZM15.0056 13.0668C15.0109 13.0699 14.9874 13.057 14.9505 13.022C14.9123 12.9856 14.8756 12.9404 14.8454 12.8912L17.9125 11.0063C17.6468 10.5739 17.2719 10.2146 16.7869 9.93843L15.0056 13.0668ZM15.7824 10.2505C15.552 10.3314 15.3988 10.3472 15.3103 10.3472V13.9472C15.8489 13.9472 16.4053 13.8473 16.9755 13.647L15.7824 10.2505ZM15.3119 10.3472C15.2431 10.3472 15.1978 10.3385 15.1679 10.3301C15.1375 10.3215 15.1063 10.3086 15.07 10.2874L13.2491 13.3929C13.8239 13.7299 14.5107 13.9465 15.3086 13.9472L15.3119 10.3472ZM15.0734 10.2893C15.0067 10.25 14.9248 10.1781 14.8465 10.0713L11.9437 12.2006C12.2525 12.6216 12.6811 13.0582 13.2458 13.3909L15.0734 10.2893ZM14.8465 10.0713C14.3916 9.45122 13.7937 8.88925 13.0721 8.47243L11.2714 11.5897C11.5283 11.7381 11.7605 11.9509 11.9437 12.2006L14.8465 10.0713ZM13.0711 8.47183C12.3443 8.05267 11.4721 7.77324 10.5115 7.77324V11.3732C10.764 11.3732 11.0221 11.4459 11.2724 11.5903L13.0711 8.47183ZM10.5128 7.77324C9.66417 7.77265 8.80654 7.99259 7.99719 8.43709L9.73018 11.5925C10.0316 11.427 10.295 11.3731 10.5102 11.3732L10.5128 7.77324ZM7.99854 8.43635C7.63524 8.63548 7.31885 8.86956 7.04449 9.12396L9.49226 11.7637C9.56075 11.7002 9.63801 11.643 9.72884 11.5933L7.99854 8.43635ZM7.62169 8.76403C7.13912 8.94981 6.77564 8.99757 6.51802 8.99757V12.5976C7.24543 12.5976 8.04632 12.4581 8.91506 12.1237L7.62169 8.76403ZM6.51802 8.99757C6.15346 8.99757 5.91594 8.90277 5.7828 8.83241L4.1007 12.0153C4.66844 12.3153 5.47922 12.5976 6.51802 12.5976V8.99757ZM5.78218 8.83209C5.71481 8.79651 5.67427 8.76619 5.66337 8.75762L3.43901 11.5882C3.59751 11.7128 3.81872 11.8664 4.10132 12.0156L5.78218 8.83209ZM5.67013 8.76296C5.6632 8.75746 5.65929 8.75419 5.65841 8.75344C5.65722 8.75243 5.66058 8.75523 5.66808 8.76203L3.24905 11.4282C3.30089 11.4752 3.36243 11.5275 3.43225 11.5829L5.67013 8.76296ZM5.70519 8.79667L5.68522 8.7775L3.19197 11.3744L3.21194 11.3935L5.70519 8.79667ZM5.66108 8.75475L5.65794 8.75184L3.21296 11.3942L3.2161 11.3971L5.66108 8.75475ZM4.43545 8.27302H4.43531V11.873H4.43545V8.27302ZM5.72479 8.81714C4.9084 7.97892 3.56985 7.95979 2.72904 8.76908L5.22555 11.3628C4.64237 11.9241 3.71332 11.9116 3.14584 11.3289L5.72479 8.81714ZM2.72778 8.77029C1.88335 9.58466 1.8586 10.9299 2.67358 11.7747L5.26442 9.27519C5.8305 9.86195 5.81325 10.796 5.22681 11.3616L2.72778 8.77029ZM2.68804 11.7895C2.6871 11.7886 2.69394 11.7955 2.70156 11.8031C2.70949 11.8111 2.71888 11.8204 2.72967 11.8309C2.75123 11.8519 2.77711 11.8764 2.80729 11.904C2.86755 11.959 2.9441 12.0252 3.03704 12.0983C3.22253 12.2442 3.47503 12.4192 3.79518 12.5888L5.48035 9.40753C5.37309 9.35072 5.30026 9.29826 5.26274 9.26875C5.24418 9.25415 5.2348 9.24559 5.23476 9.24555C5.23474 9.24554 5.23528 9.24603 5.23638 9.24706C5.23748 9.2481 5.23907 9.24962 5.24113 9.25163C5.24622 9.25658 5.25151 9.26194 5.24996 9.26037L2.68804 11.7895ZM3.79553 12.5889C4.08675 12.7431 4.42489 12.885 4.80162 12.9981L5.83647 9.55003C5.68342 9.50409 5.56293 9.45126 5.48 9.40735L3.79553 12.5889ZM3.85161 10.2316C3.75023 10.3744 3.62066 10.5704 3.48262 10.8135L6.61323 12.591C6.68453 12.4654 6.74714 12.3718 6.78648 12.3165L3.85161 10.2316ZM3.48203 10.8146C3.22066 11.2756 2.89972 11.9567 2.73282 12.7893L6.26259 13.4968C6.33128 13.1542 6.47271 12.8389 6.61382 12.5899L3.48203 10.8146ZM2.73273 12.7897C2.50211 13.9415 3.2498 15.059 4.39769 15.2898L5.10715 11.7604C5.90339 11.9204 6.42298 12.6958 6.26268 13.4964L2.73273 12.7897ZM4.40177 15.2906C5.54956 15.5186 6.67061 14.7748 6.89993 13.6208L3.36898 12.9192C3.52836 12.1171 4.30694 11.6014 5.10308 11.7596L4.40177 15.2906ZM6.8996 13.6225C6.94929 13.3737 7.06091 13.1176 7.1776 12.9124L4.04803 11.1331C3.80931 11.553 3.51724 12.1767 3.36931 12.9175L6.8996 13.6225ZM7.17896 12.91C7.23478 12.8114 7.28415 12.7375 7.31294 12.6967L4.37263 10.6196C4.28319 10.7462 4.16812 10.9211 4.04667 11.1355L7.17896 12.91ZM7.31523 12.6935C7.33227 12.6692 7.34259 12.6555 7.3441 12.6536L4.47965 10.473C4.44947 10.5126 4.41235 10.5631 4.37033 10.6228L7.31523 12.6935ZM7.32771 12.6748C7.33474 12.6658 7.34071 12.6581 7.3452 12.6523C7.34739 12.6495 7.3493 12.647 7.35049 12.6455C7.35204 12.6435 7.35201 12.6435 7.35175 12.6439L4.50696 10.4377C4.50493 10.4403 4.50281 10.4431 4.50197 10.4441C4.50078 10.4457 4.50002 10.4467 4.49927 10.4476C4.49787 10.4494 4.49689 10.4507 4.49604 10.4518L7.32771 12.6748ZM7.32369 12.6791L7.32744 12.6745L4.53878 10.3978L4.53503 10.4024L7.32369 12.6791ZM7.2059 12.809L7.20632 12.8086L4.66074 10.263L4.66032 10.2634L7.2059 12.809ZM7.57862 12.2663L7.57881 12.2659L4.28863 10.8048L4.28844 10.8052L7.57862 12.2663ZM7.32684 12.6752C7.53052 12.4262 7.663 12.1489 7.73576 11.8725L4.25439 10.956C4.30438 10.7661 4.39682 10.5712 4.5406 10.3955L7.32684 12.6752ZM5.77512 13.2008C6.00396 13.2289 6.25298 13.2473 6.52214 13.2467L6.51389 9.6467C6.41471 9.64693 6.31666 9.64026 6.21503 9.62775L5.77512 13.2008ZM6.51579 13.2467C7.0006 13.2473 7.50918 13.19 8.03509 13.0704L7.23697 9.56C6.95757 9.62353 6.7183 9.64694 6.52024 9.6467L6.51579 13.2467ZM6.00313 10.5578C5.68235 11.2494 5.55445 11.9604 5.55408 12.6051L9.15408 12.6072C9.15418 12.4287 9.19052 12.2416 9.26893 12.0726L6.00313 10.5578ZM5.55408 12.6096C5.55529 13.2383 5.67338 13.8828 5.94508 14.4615L9.2038 12.9315C9.19415 12.911 9.15446 12.8031 9.15407 12.6027L5.55408 12.6096ZM5.9471 14.4658C6.44959 15.5288 7.71704 15.9789 8.77563 15.479L7.23837 12.2237C7.97278 11.8769 8.85275 12.1889 9.20178 12.9272L5.9471 14.4658ZM8.77602 15.4788C9.83762 14.9772 10.2913 13.7088 9.78789 12.6475L6.5353 14.1904C6.18543 13.4529 6.50057 12.5723 7.23798 12.2239L8.77602 15.4788ZM9.96159 13.419V13.4185H6.36159V13.419H9.96159ZM9.78437 12.6397C9.79354 12.6588 9.79987 12.6739 9.80398 12.6844C9.80813 12.6949 9.81066 12.7024 9.81197 12.7064C9.81443 12.7141 9.81375 12.7133 9.8119 12.7043C9.81012 12.6956 9.80791 12.6823 9.80622 12.6655C9.80454 12.6487 9.8036 12.6306 9.80366 12.6121L6.20368 12.6002C6.20188 13.1472 6.3102 13.721 6.53881 14.1974L9.78437 12.6397ZM9.80367 12.605C9.8036 12.4983 9.82868 12.3986 9.863 12.332L6.66288 10.683C6.33091 11.3272 6.20327 12.0066 6.20367 12.6073L9.80367 12.605ZM9.86119 12.3355C9.88004 12.2991 9.8992 12.2731 9.92024 12.2512C9.94083 12.2297 9.9772 12.1977 10.0441 12.1608L8.30793 9.00717C7.53701 9.43158 7.00424 10.0241 6.66469 10.6795L9.86119 12.3355ZM10.0403 12.1629C10.2543 12.0458 10.4053 12.0229 10.5131 12.0228L10.5099 8.42279C9.77449 8.42344 9.03278 8.61036 8.31169 9.00511L10.0403 12.1629ZM10.5115 12.0228C10.6367 12.0228 10.7825 12.0576 10.9499 12.1539L12.7448 9.03327C12.1049 8.66518 11.3463 8.42279 10.5115 8.42279V12.0228ZM10.9479 12.1527C11.1178 12.2507 11.2868 12.403 11.4194 12.5839L14.3231 10.4559C13.919 9.90442 13.3834 9.40169 12.7468 9.03442L10.9479 12.1527ZM11.4196 12.5842C11.7715 13.0642 12.2609 13.5642 12.9158 13.9503L14.7441 10.8491C14.5858 10.7558 14.4433 10.6199 14.3229 10.4557L11.4196 12.5842ZM12.9144 13.9495C13.5829 14.3444 14.3958 14.5974 15.3116 14.5967L15.3089 10.9967C15.072 10.9969 14.8885 10.9345 14.7455 10.85L12.9144 13.9495ZM15.3103 14.5967C15.9107 14.5967 16.5211 14.4877 17.1311 14.28L15.9706 10.8722C15.6908 10.9675 15.4725 10.9967 15.3103 10.9967V14.5967ZM14.7526 12.6557L14.7537 12.679L18.3501 12.5198L18.3491 12.4965L14.7526 12.6557ZM14.7519 12.5994C14.7519 12.5926 14.7521 12.5882 14.7523 12.5861C14.7525 12.5839 14.7526 12.583 14.7525 12.5833C14.7525 12.5836 14.7524 12.5841 14.7524 12.5845C14.7523 12.5849 14.7524 12.5844 14.7528 12.5826L18.252 13.4286C18.3009 13.2261 18.3519 12.9356 18.3519 12.5994H14.7519ZM14.7521 12.5856C14.7531 12.5813 14.7548 12.5751 14.7577 12.5661L18.1809 13.6806C18.2008 13.6193 18.2271 13.5323 18.2527 13.4255L14.7521 12.5856ZM14.7642 12.5467C14.763 12.55 14.7633 12.5493 14.7644 12.546C14.7651 12.5442 14.7664 12.5404 14.7683 12.535C14.7701 12.5302 14.7736 12.5206 14.7784 12.508L18.1407 13.7944C18.1573 13.751 18.1715 13.7088 18.1744 13.7L14.7642 12.5467ZM14.7736 12.5208L14.7717 12.5258L18.1437 13.7867L18.1455 13.7817L14.7736 12.5208ZM14.7055 12.7441L14.7053 12.7449L18.2097 13.5691L18.2099 13.5683L14.7055 12.7441ZM16.4575 14.957H16.4577V11.357H16.4575V14.957ZM14.7841 12.4943C14.353 13.5831 14.8843 14.8136 15.9691 15.2485L17.3087 11.907C18.0615 12.2088 18.4308 13.0631 18.1312 13.8197L14.7841 12.4943ZM15.9701 15.2489C17.0609 15.6854 18.2969 15.1535 18.7323 14.0655L15.3899 12.728C15.6921 11.9729 16.5497 11.6033 17.3076 11.9066L15.9701 15.2489ZM18.7568 14.0006C18.7517 14.0148 18.8229 13.8317 18.8835 13.5808C18.9428 13.3356 19.0003 12.9994 19.0013 12.6042L15.4014 12.5945C15.4012 12.6492 15.3927 12.7 15.3842 12.7353C15.3803 12.7514 15.3773 12.7606 15.3772 12.7611C15.3771 12.7611 15.3776 12.7596 15.3786 12.7569C15.3791 12.7557 15.3794 12.7549 15.3789 12.7561C15.3787 12.7566 15.3786 12.7569 15.3782 12.758C15.3779 12.7588 15.3773 12.7605 15.3766 12.7624C15.3763 12.763 15.3712 12.7767 15.3654 12.7929L18.7568 14.0006ZM19.0013 12.5994C19.0013 12.1359 18.9205 11.5412 18.6152 10.9324L15.3971 12.546C15.3949 12.5416 15.3956 12.5412 15.3973 12.549C15.3991 12.5579 15.4013 12.5744 15.4013 12.5994H19.0013ZM18.6173 10.9365C18.3015 10.3026 17.7842 9.7538 17.0976 9.36787L15.3338 12.5062C15.3774 12.5307 15.3968 12.5495 15.4018 12.5547C15.4072 12.5604 15.4026 12.5571 15.395 12.5419L18.6173 10.9365Z" fill="#90A4AE" mask="url(#path-1-inside-1_7174_9205)"/>
<path d="M16.9398 8.7685C16.0471 8.7685 15.3303 8.43972 14.8344 8.00941C14.587 7.79468 14.3968 7.55453 14.2718 7.32485C14.1461 7.09469 14.0885 6.87578 14.0893 6.71182C14.0893 6.53243 13.9439 6.38721 13.7645 6.38721C13.5852 6.38721 13.4399 6.53243 13.4399 6.71182C13.4407 7.01725 13.5362 7.33024 13.7014 7.63488C13.8743 7.95203 14.127 8.25996 14.448 8.53127C14.3833 8.62118 14.294 8.73691 14.18 8.86089C13.9326 9.13099 13.576 9.43019 13.1502 9.58127C12.9813 9.6416 12.8933 9.82764 12.9536 9.99616C13.014 10.1651 13.1998 10.2534 13.3686 10.193C13.9464 9.98533 14.379 9.60668 14.6724 9.2845C14.8031 9.1405 14.9048 9.00902 14.9799 8.90374C15.5172 9.21377 16.1808 9.41852 16.9399 9.4181C17.119 9.4181 17.2647 9.27288 17.2647 9.09349C17.2646 8.91419 17.1189 8.7685 16.9398 8.7685Z" fill="#90A4AE"/>
<path d="M14.7749 15.1191C14.1673 15.1191 13.6845 15.0017 13.2967 14.8224C12.7161 14.5527 12.3395 14.1382 12.1025 13.7249C11.9843 13.5189 11.9027 13.3138 11.8513 13.1336C11.7997 12.9542 11.7795 12.7969 11.7799 12.7016C11.7799 12.5223 11.6347 12.377 11.4553 12.377C11.2757 12.377 11.1305 12.5222 11.1305 12.7016C11.1305 12.8186 11.1444 12.948 11.173 13.0903C11.2225 13.3383 11.3168 13.6251 11.4695 13.9205C11.6986 14.3634 12.0623 14.8278 12.6059 15.1807C12.7419 15.2698 12.8893 15.3505 13.0478 15.4229C13.0725 15.5294 13.1069 15.7192 13.1067 15.9481C13.1067 16.1146 13.0888 16.3002 13.0384 16.4904C12.9881 16.6805 12.9061 16.8745 12.7758 17.063C12.6737 17.2108 12.7105 17.413 12.858 17.515C13.0056 17.6169 13.2078 17.5803 13.3098 17.433C13.4871 17.1766 13.5994 16.9103 13.6665 16.6564C13.7337 16.4022 13.7561 16.1604 13.7561 15.9481C13.7561 15.842 13.7503 15.7438 13.7415 15.6539C14.0545 15.7267 14.3974 15.7692 14.7749 15.7687C14.9541 15.7687 15.0995 15.6231 15.0995 15.4437C15.0995 15.2647 14.9541 15.1191 14.7749 15.1191Z" fill="#90A4AE"/>
<path d="M19.186 10.2408C19.0252 10.1022 18.8517 9.98857 18.6685 9.90781C18.4856 9.82709 18.2923 9.77881 18.0944 9.77881C17.9151 9.77881 17.7696 9.92403 17.7696 10.1034C17.7696 10.2832 17.9151 10.4284 18.0944 10.4284C18.2138 10.428 18.3649 10.4697 18.5237 10.5616C18.7617 10.6981 19.0092 10.9432 19.1891 11.2504C19.3702 11.5571 19.4848 11.9221 19.4846 12.2991C19.4832 12.714 19.3525 13.1468 18.9988 13.5772C18.8845 13.7157 18.9041 13.9201 19.0425 14.0345C19.1806 14.1485 19.3854 14.129 19.4996 13.9908C19.9453 13.4531 20.1355 12.8567 20.134 12.2991C20.134 11.9603 20.0662 11.6362 19.9522 11.3407C19.7807 10.8978 19.5075 10.5187 19.186 10.2408Z" fill="#90A4AE"/>
<path d="M7.87842 8.50939V8.50897C8.1015 8.24469 8.41927 8.03745 8.78152 7.89805C9.14316 7.75822 9.54684 7.68828 9.92452 7.6887C10.2924 7.68786 10.6349 7.75569 10.8861 7.87264C11.049 7.94755 11.2419 7.87681 11.3173 7.71369C11.3924 7.55094 11.3212 7.35828 11.1585 7.28291C10.7956 7.11603 10.3693 7.03944 9.92456 7.03906C9.46805 7.03906 8.9917 7.12147 8.54808 7.29162C8.10553 7.46225 7.69331 7.72283 7.38267 8.08944C7.26675 8.22636 7.28381 8.43148 7.42073 8.54722C7.55756 8.66337 7.76255 8.64589 7.87842 8.50939Z" fill="#90A4AE"/>
<path d="M22.5765 7.5708L22.5767 7.57122L22.5765 7.5708Z" fill="#90A4AE"/>
<path d="M15.7575 18.4131V18.4135H15.7572L15.7575 18.4131Z" fill="#90A4AE"/>
<path d="M23.0726 9.76959C23.0152 9.71132 22.9536 9.65596 22.8912 9.6015C22.9238 9.41962 22.9427 9.23442 22.9427 9.04631C22.9429 8.54775 22.8241 8.04004 22.5767 7.57143C22.2939 7.03415 21.8751 6.60796 21.3861 6.31917C21.044 6.1169 20.6678 5.98209 20.2778 5.91923C20.1832 5.58257 20.0348 5.26209 19.8354 4.97123C19.5036 4.48682 19.0316 4.08567 18.4542 3.83718C18.0412 3.65948 17.6077 3.57417 17.182 3.57417C17.182 3.57417 17.1689 3.57375 17.145 3.57586C16.6043 3.58214 16.0781 3.72403 15.6126 3.98329C15.4305 3.76396 15.22 3.56878 14.9857 3.40439C14.4721 3.04359 13.8441 2.82965 13.1722 2.823C13.1645 2.82257 13.1551 2.8222 13.1437 2.82178C13.1422 2.82178 13.1408 2.82178 13.1392 2.82178H13.1387H13.1383H13.1381C13.1371 2.82178 13.1361 2.82178 13.135 2.82178C13.1288 2.82178 13.1213 2.8222 13.1117 2.82257C12.5266 2.82717 11.9738 2.98865 11.5014 3.26826C11.2966 3.38896 11.1098 3.53418 10.9383 3.69567C10.449 3.39061 9.87066 3.21248 9.25472 3.20957L9.25247 3.2092H9.23789C9.23747 3.2092 9.23723 3.2092 9.23686 3.2092C9.23602 3.2092 9.23517 3.2092 9.23419 3.2092C9.22669 3.2092 9.21731 3.20957 9.20545 3.21042C8.55019 3.21665 7.9357 3.41976 7.42908 3.76434C7.13545 3.9637 6.87848 4.2105 6.666 4.49301C6.39717 4.42021 6.11648 4.3807 5.8297 4.3807C5.59106 4.3807 5.34905 4.40775 5.10811 4.46268C4.39852 4.62539 3.79242 5.0145 3.35808 5.53429H3.35831C3.05348 5.89842 2.83355 6.32789 2.71284 6.79111C2.25005 6.94804 1.81392 7.21106 1.44914 7.58264C1.44895 7.58306 1.44853 7.58348 1.44811 7.5839C0.836344 8.20772 0.528375 9.02381 0.52861 9.83409V9.83531V9.837C0.52861 9.837 0.52861 9.83779 0.52861 9.83864V9.84736H0.528797C0.529594 10.1291 0.567703 10.41 0.642 10.683C0.224953 11.2411 0.000234588 11.919 2.12581e-07 12.6128C-0.000187287 13.1264 0.123656 13.6486 0.381 14.1301C0.670219 14.6707 1.09556 15.0989 1.59038 15.389C1.93744 15.5925 2.31844 15.727 2.71313 15.7902C2.92331 16.355 3.28369 16.8423 3.7448 17.2031C4.29328 17.633 4.9852 17.8873 5.72658 17.8873C5.80359 17.8873 5.88038 17.8848 5.95711 17.879H5.95898H5.96002H5.96025H5.96044C6.28772 17.8552 6.60131 17.7816 6.89344 17.668C7.08759 17.9792 7.33162 18.2543 7.61508 18.4812C8.16337 18.9202 8.86064 19.1824 9.60806 19.1857C9.61078 19.1862 9.61303 19.1862 9.61538 19.1862C9.61791 19.1862 9.62034 19.1862 9.62269 19.1862H9.62311C9.62334 19.1862 9.62334 19.1862 9.62334 19.1862H9.62395H9.62728C9.62836 19.1862 9.62878 19.1862 9.62981 19.1862L9.63792 19.1857H9.64022C9.69994 19.1853 9.75989 19.1828 9.81956 19.1791H9.82041L9.85556 19.1782C10.1231 19.1587 10.3816 19.1066 10.6265 19.0259C10.9351 19.4842 11.3648 19.8707 11.8965 20.1271H11.8962C12.3448 20.3435 12.8234 20.4472 13.2931 20.4472C13.7504 20.4472 14.1978 20.3477 14.6081 20.1637C15.2045 20.7971 16.0454 21.1775 16.9499 21.1784C17.1482 21.1784 17.3488 21.1601 17.5494 21.1222C18.3199 20.9774 18.9802 20.5649 19.4421 20.0019H19.4419C19.7436 19.6353 19.9607 19.2025 20.0768 18.7355C20.6097 18.6831 21.1384 18.4975 21.6058 18.1687C22.0505 17.8566 22.395 17.4487 22.626 16.9935C22.857 16.5386 22.976 16.0366 22.976 15.5302C22.976 15.1927 22.9211 14.8539 22.8131 14.5272C23.0904 14.3013 23.3357 14.0257 23.5313 13.7032C23.8477 13.183 24 12.6029 24 12.0327C23.9998 11.1991 23.6767 10.3814 23.0726 9.76959ZM22.5599 13.113C22.2334 13.6507 21.7071 13.9853 21.1322 14.0848C20.9553 14.1152 20.8367 14.2833 20.8671 14.4597C20.8974 14.6366 21.0654 14.7552 21.2421 14.7248C21.3742 14.7024 21.5043 14.6695 21.6318 14.6279C21.7708 14.9151 21.8393 15.223 21.8393 15.5302C21.8395 15.8585 21.7619 16.1848 21.6125 16.479C21.4629 16.7733 21.2423 17.035 20.9527 17.2389C20.5879 17.4944 20.1738 17.6164 19.7612 17.6168C19.7289 17.6168 19.6967 17.6143 19.6644 17.6127C19.6576 17.5586 19.6509 17.5049 19.6409 17.4512V17.4508C19.5697 17.0741 19.4233 16.7295 19.222 16.4303L19.1975 16.3937L19.1642 16.365C18.918 16.1544 18.5915 15.8081 18.3395 15.4552C18.2132 15.2792 18.1052 15.1011 18.0326 14.9425C17.9591 14.7839 17.9255 14.6453 17.9267 14.5634C17.9267 14.5268 17.9321 14.5022 17.9382 14.4856C17.9446 14.4694 17.9506 14.4598 17.9633 14.4465C18.09 14.32 18.09 14.114 17.9633 13.9874C17.8364 13.8606 17.6308 13.8606 17.5041 13.9874V13.9871C17.425 14.0661 17.3653 14.1614 17.3287 14.2613C17.292 14.3612 17.2773 14.464 17.2773 14.5634C17.2785 14.7886 17.3466 15.0016 17.4423 15.213C17.5874 15.5285 17.8037 15.8419 18.0374 16.1278C18.2573 16.3966 18.4914 16.6376 18.701 16.8224C18.8452 17.0446 18.9505 17.2951 19.0025 17.571C19.0244 17.6872 19.0364 17.8024 19.0381 17.9135L19.0383 17.9152C19.0385 17.9302 19.0387 17.9448 19.0387 17.9597C19.0387 18.4508 18.8641 18.9148 18.5639 19.2806C18.2632 19.6461 17.8401 19.9107 17.3393 20.0052C17.2082 20.0298 17.0782 20.0418 16.9502 20.0418C16.2615 20.0422 15.6243 19.6968 15.2415 19.1458C15.4475 18.9369 15.6231 18.6914 15.7575 18.4134C15.9241 18.0688 16.0115 17.7042 16.0275 17.3438C16.0355 17.164 15.8965 17.0126 15.7175 17.0047C15.5382 16.9968 15.3864 17.1357 15.3785 17.3147C15.3662 17.5906 15.3001 17.867 15.1725 18.1304L15.1724 18.1312C15.0362 18.4133 14.8456 18.6493 14.619 18.8362L14.6178 18.837C14.2456 19.1425 13.7745 19.3106 13.2932 19.3106C12.9898 19.3106 12.6825 19.244 12.3901 19.1033C11.8486 18.842 11.4727 18.3801 11.3064 17.8491L11.3062 17.8486C11.2427 17.6472 11.2098 17.4362 11.2098 17.2236C11.2098 16.9202 11.2764 16.6131 11.4177 16.3192C11.4957 16.1578 11.4277 15.9638 11.2662 15.886C11.1047 15.8082 10.9106 15.876 10.8328 16.0375C10.6484 16.4196 10.5604 16.8253 10.5604 17.2236C10.5604 17.4167 10.5825 17.6077 10.6224 17.795C10.3687 17.9336 10.0826 18.0218 9.77339 18.0448H9.77278C9.72244 18.0481 9.67247 18.0497 9.62339 18.0497C9.13584 18.0497 8.68411 17.8807 8.32495 17.5936C8.01239 17.3439 7.77291 17.0056 7.64494 16.6139C7.87359 16.3884 8.06297 16.1246 8.20134 15.832C8.27789 15.6701 8.20861 15.4762 8.04652 15.3996C7.88442 15.323 7.69069 15.3921 7.61409 15.5544C7.48552 15.8265 7.29909 16.068 7.06955 16.2614C6.74452 16.5357 6.33398 16.7126 5.87686 16.7454H5.8762C5.82605 16.7488 5.77613 16.7508 5.72681 16.7508C4.69556 16.7512 3.81539 15.9905 3.6668 14.9709L3.66642 14.9684L3.666 14.9659C3.65808 14.9176 3.65245 14.8668 3.6487 14.8144C3.64519 14.7636 3.64336 14.7137 3.64336 14.6638C3.64336 14.5322 3.65564 14.4037 3.67889 14.2784C3.71138 14.1019 3.59484 13.9326 3.41841 13.8997C3.24216 13.8672 3.0728 13.9837 3.04013 14.1602C3.00994 14.3233 2.99391 14.4919 2.99391 14.6638L2.99456 14.6825C2.70263 14.65 2.41922 14.5572 2.16534 14.4082C1.84509 14.2205 1.57191 13.9463 1.38338 13.5942C1.21566 13.2804 1.13681 12.945 1.13658 12.6133C1.13658 12.1855 1.26938 11.7652 1.51509 11.414C1.60913 11.5471 1.71633 11.6737 1.83638 11.7914C2.11003 12.0603 2.42752 12.2596 2.76403 12.3894C2.93114 12.4544 3.11925 12.3712 3.18394 12.2039C3.24867 12.0366 3.16547 11.8484 2.99836 11.7839C2.74158 11.6844 2.50064 11.5334 2.29148 11.3278L2.29106 11.3274C2.10713 11.1472 1.96416 10.9417 1.86113 10.7215C1.73067 10.4427 1.66514 10.1401 1.66514 9.83714C1.66533 9.30984 1.86239 8.78592 2.26003 8.37932C2.59814 8.03517 3.02372 7.8337 3.46603 7.77337H3.46645H3.46688L3.46809 7.77295C3.56156 7.76048 3.65559 7.75382 3.75005 7.75425C4.27716 7.75467 4.80211 7.95196 5.20852 8.34937C5.33667 8.47462 5.54227 8.47256 5.66775 8.3444C5.79323 8.21625 5.79094 8.01065 5.66278 7.88536C5.14566 7.37887 4.47506 7.12003 3.80334 7.10714C3.87994 6.79626 4.026 6.50746 4.22991 6.264C4.51205 5.92692 4.90017 5.67721 5.36227 5.57067C5.5192 5.53486 5.67567 5.51742 5.82961 5.51742C6.10177 5.51742 6.36628 5.57151 6.61073 5.67056C6.54122 5.91234 6.50297 6.16748 6.50297 6.43087C6.50297 6.61021 6.64842 6.75548 6.82777 6.75548C7.00711 6.75548 7.15238 6.61026 7.15238 6.43087C7.15238 6.14662 7.20961 5.87531 7.3118 5.62893C7.46864 5.25271 7.73377 4.93143 8.06733 4.70461C8.40155 4.47782 8.80252 4.34629 9.23738 4.34587C9.86306 4.34629 10.422 4.62014 10.8051 5.05668L10.8057 5.05711C11.1278 5.42372 11.322 5.90315 11.3222 6.43082C11.3222 6.61017 11.4674 6.75543 11.647 6.75543C11.8264 6.75543 11.9716 6.61021 11.9716 6.43082C11.9718 5.83115 11.7779 5.27432 11.4493 4.82357C11.6175 4.59056 11.8318 4.39326 12.0798 4.24678C12.3902 4.06326 12.7507 3.9584 13.1385 3.9584C13.584 3.9584 13.9939 4.09739 14.3325 4.33504C14.671 4.57223 14.9362 4.90809 15.0857 5.29968L15.0855 5.29931C15.1738 5.53111 15.2223 5.78039 15.2225 6.0434C15.2225 6.22275 15.3677 6.36806 15.5471 6.36806C15.7265 6.36806 15.8719 6.22279 15.8719 6.0434C15.8719 5.77537 15.8317 5.51653 15.7598 5.27184C16.1443 4.91353 16.6547 4.71084 17.1814 4.71084C17.4564 4.71084 17.7353 4.76578 18.005 4.88146C18.381 5.04337 18.6829 5.30095 18.8983 5.61473C19.1134 5.92809 19.2404 6.29723 19.2618 6.67842C19.2639 6.71756 19.2652 6.75707 19.2652 6.79659C19.2649 7.07165 19.2106 7.35014 19.095 7.61981C19.0242 7.78462 19.1002 7.97559 19.2649 8.04632C19.4297 8.11748 19.6207 8.04093 19.6915 7.87612C19.812 7.59646 19.8812 7.3064 19.9047 7.01761C20.2231 7.03884 20.5332 7.13536 20.8078 7.29768C21.1214 7.48331 21.3881 7.75378 21.571 8.10089V8.10126C21.7311 8.40426 21.806 8.72718 21.8062 9.0464C21.8062 9.19289 21.7893 9.33768 21.7583 9.47962C21.5623 9.40387 21.361 9.35184 21.1582 9.32315C20.9806 9.29817 20.8165 9.42182 20.7915 9.5999C20.7666 9.77723 20.8902 9.94157 21.0679 9.96656C21.2716 9.99529 21.4724 10.054 21.6651 10.1447C21.6992 10.2 21.7495 10.2462 21.8138 10.2737C21.854 10.2907 21.8956 10.2991 21.9368 10.2995C22.0567 10.3794 22.1657 10.4689 22.2631 10.5679L22.2587 10.5634L22.2639 10.5688C22.6528 10.9616 22.8634 11.4922 22.8632 12.0328C22.8632 12.4018 22.7659 12.7743 22.5599 13.113Z" fill="#90A4AE"/>
</svg>
