<svg width="24" height="24" viewBox="0 0 24 24" fill="none" xmlns="http://www.w3.org/2000/svg">
<g clip-path="url(#clip0_7174_9221)">
<path d="M6 21.4999C4.067 21.4999 2.5 19.9329 2.5 17.9999C2.5 16.0669 4.067 14.4999 6 14.4999C7.45372 14.4999 8.7005 15.3865 9.22959 16.649C9.31506 16.8529 9.50657 16.9999 9.72771 16.9999H14.5C14.7761 16.9999 15 16.776 15 16.4999V15.4999C15 15.2237 15.2239 14.9999 15.5 14.9999H16.5C16.7761 14.9999 17 14.776 17 14.4999V9.44903C17 9.31638 16.9473 9.18917 16.8535 9.0954L14.9034 7.14623C14.8097 7.05251 14.6825 6.99986 14.55 6.99986H9.5C9.22386 6.99986 9 7.22372 9 7.49986V8.49986C9 8.776 8.77614 8.99986 8.5 8.99986H3.5C3.22386 8.99986 3 8.776 3 8.49986V3.49986C3 3.22372 3.22386 2.99986 3.5 2.99986H8.5C8.77614 2.99986 9 3.22372 9 3.49986V4.49986C9 4.776 9.22386 4.99986 9.5 4.99986H14.5499C14.6825 4.99986 14.8097 4.94716 14.9035 4.85336L17.6464 2.10956C17.8417 1.91423 18.1583 1.91423 18.3536 2.10955L21.8894 5.6462C22.0847 5.84151 22.0846 6.15814 21.8893 6.35337L19.1466 9.09439C19.0527 9.18817 19 9.31539 19 9.44806V14.4999C19 14.776 19.2239 14.9999 19.5 14.9999H20.5C20.7761 14.9999 21 15.2237 21 15.4999V20.4999C21 20.776 20.7761 20.9999 20.5 20.9999H15.5C15.2239 20.9999 15 20.776 15 20.4999V19.4999C15 19.2237 14.7761 18.9999 14.5 18.9999H9.72795C9.5067 18.9999 9.31513 19.1469 9.22968 19.351C8.70115 20.6134 7.45361 21.4999 6 21.4999ZM6 16.4999C5.172 16.4999 4.5 17.1719 4.5 17.9999C4.5 18.8279 5.172 19.4999 6 19.4999C6.828 19.4999 7.5 18.8279 7.5 17.9999C7.5 17.1719 6.828 16.4999 6 16.4999ZM19 17.4999C19 17.2237 18.7761 16.9999 18.5 16.9999H17.5C17.2239 16.9999 17 17.2237 17 17.4999V18.4999C17 18.776 17.2239 18.9999 17.5 18.9999H18.5C18.7761 18.9999 19 18.776 19 18.4999V17.4999ZM18.3536 4.93941C18.1583 4.74415 17.8417 4.74415 17.6464 4.93941L16.9396 5.64631C16.7443 5.84157 16.7443 6.15815 16.9396 6.35341L17.6464 7.06031C17.8417 7.25557 18.1583 7.25557 18.3536 7.06031L19.0604 6.35341C19.2557 6.15815 19.2557 5.84157 19.0604 5.64631L18.3536 4.93941ZM7 5.49986C7 5.22372 6.77614 4.99986 6.5 4.99986H5.5C5.22386 4.99986 5 5.22372 5 5.49986V6.49986C5 6.776 5.22386 6.99986 5.5 6.99986H6.5C6.77614 6.99986 7 6.776 7 6.49986V5.49986Z" fill="#90A4AE"/>
</g>
<defs>
<clipPath id="clip0_7174_9221">
<rect width="24" height="24" fill="white"/>
</clipPath>
</defs>
</svg>
