<svg width="24" height="24" viewBox="0 0 24 24" fill="none" xmlns="http://www.w3.org/2000/svg">
<mask id="path-1-inside-1_7174_9231" fill="white">
<path d="M12.0051 0.415039C18.2537 0.415039 23.4703 5.67104 23.4703 12.2179C23.4703 16.0493 21.8057 19.4865 19.0509 21.6516C18.8879 21.7901 18.6819 21.8677 18.468 21.871C18.3599 21.8697 18.2532 21.8471 18.1539 21.8045C18.0546 21.7619 17.9646 21.7001 17.8891 21.6228C17.8137 21.5454 17.7542 21.4539 17.7141 21.3536C17.674 21.2532 17.6541 21.146 17.6554 21.0379C17.6554 20.767 17.7789 20.5253 17.9709 20.3659C18.852 19.6905 19.6166 18.8676 20.2371 17.9316L19.2377 17.3419C19.0709 17.2407 18.9501 17.0785 18.9008 16.8897C18.8515 16.7009 18.8777 16.5003 18.9737 16.3305C19.0199 16.2469 19.0823 16.1735 19.1573 16.1145C19.2322 16.0555 19.3183 16.012 19.4103 15.9868C19.5023 15.9616 19.5985 15.955 19.6931 15.9675C19.7877 15.98 19.8788 16.0113 19.9611 16.0596L20.9623 16.651C21.5101 15.4907 21.8368 14.2385 21.9257 12.9585H20.7771C20.6809 12.9576 20.5857 12.9377 20.4971 12.9C20.4086 12.8622 20.3283 12.8074 20.2609 12.7386C20.1936 12.6698 20.1404 12.5884 20.1046 12.4991C20.0687 12.4097 20.0509 12.3142 20.052 12.2179C20.052 11.8065 20.376 11.4773 20.7754 11.4773H21.924C21.8331 10.1573 21.4954 8.9059 20.9571 7.77275L19.9629 8.36075C19.8805 8.40931 19.7892 8.44086 19.6944 8.45351C19.5996 8.46616 19.5033 8.45967 19.411 8.43441C19.3188 8.40915 19.2326 8.36565 19.1575 8.30647C19.0823 8.2473 19.0199 8.17365 18.9737 8.0899C18.8777 7.92005 18.8515 7.71949 18.9008 7.5307C18.9501 7.34191 19.0709 7.17971 19.2377 7.07847L20.232 6.49218C19.5281 5.43167 18.6301 4.51383 17.5851 3.78704L17.0074 4.81047C16.9613 4.89399 16.8989 4.96743 16.8239 5.02645C16.7489 5.08548 16.6629 5.12889 16.5708 5.15414C16.4788 5.17938 16.3827 5.18594 16.2881 5.17344C16.1935 5.16093 16.1023 5.12961 16.02 5.08132C15.8532 4.98008 15.7324 4.81788 15.6831 4.62909C15.6338 4.4403 15.66 4.23974 15.756 4.0699L16.332 3.04647C15.2049 2.48678 13.9801 2.15087 12.7251 2.05732V3.23332C12.7267 3.32988 12.7092 3.4258 12.6736 3.51555C12.6379 3.6053 12.5849 3.68711 12.5174 3.75627C12.45 3.82543 12.3696 3.88056 12.2808 3.9185C12.192 3.95644 12.0966 3.97643 12 3.97732C11.9039 3.97621 11.8089 3.95616 11.7205 3.91834C11.6321 3.88051 11.5521 3.82565 11.4849 3.75688C11.4177 3.68811 11.3647 3.60678 11.329 3.51754C11.2933 3.42829 11.2754 3.33288 11.2766 3.23675V2.06075C10.0178 2.15231 8.78911 2.4889 7.65943 3.05161L8.232 4.0699C8.32804 4.23974 8.35419 4.4403 8.30491 4.62909C8.25563 4.81788 8.1348 4.98008 7.968 5.08132C7.8858 5.12968 7.79475 5.1611 7.70022 5.17373C7.60568 5.18636 7.50958 5.17994 7.41756 5.15486C7.32555 5.12978 7.23948 5.08654 7.16443 5.02769C7.08939 4.96884 7.02687 4.89556 6.98057 4.81218L6.408 3.79561C5.36743 4.52196 4.47249 5.43725 3.76972 6.4939L4.764 7.08018C5.10857 7.28418 5.22686 7.73675 5.028 8.09161C4.98186 8.17537 4.91938 8.24901 4.84426 8.30819C4.76914 8.36736 4.68292 8.41087 4.59068 8.43612C4.49845 8.46138 4.40209 8.46787 4.30731 8.45522C4.21252 8.44257 4.12124 8.41103 4.03886 8.36247L3.04457 7.77447C2.49445 8.93785 2.16599 10.1936 2.076 11.4773H3.22457C3.62572 11.4773 3.94972 11.8099 3.94972 12.2196C3.95085 12.3159 3.93298 12.4114 3.89713 12.5008C3.86127 12.5901 3.80815 12.6715 3.74079 12.7403C3.67343 12.8091 3.59316 12.864 3.50458 12.9017C3.416 12.9394 3.32085 12.9593 3.22457 12.9602H2.076C2.16686 14.275 2.50457 15.523 3.03943 16.6528L4.03886 16.0613C4.12124 16.0128 4.21252 15.9812 4.30731 15.9686C4.40209 15.9559 4.49845 15.9624 4.59068 15.9877C4.68292 16.0129 4.76914 16.0564 4.84426 16.1156C4.91938 16.1748 4.98186 16.2484 5.028 16.3322C5.12404 16.502 5.15018 16.7026 5.10091 16.8914C5.05163 17.0802 4.9308 17.2424 4.764 17.3436L3.76286 17.935C4.36461 18.8444 5.10969 19.6502 5.96915 20.3213C6.20915 20.467 6.36857 20.7328 6.36857 21.0396C6.36993 21.1478 6.34994 21.2552 6.30973 21.3557C6.26952 21.4562 6.20989 21.5477 6.13425 21.6251C6.05861 21.7025 5.96846 21.7642 5.86894 21.8067C5.76942 21.8492 5.6625 21.8716 5.55429 21.8728C5.36572 21.8728 5.10172 21.7236 4.96286 21.619C2.148 19.4573 0.529716 16.0973 0.529716 12.2179C0.531431 5.66932 5.76 0.415039 12.0051 0.415039ZM15.5657 8.4379C15.6403 8.37838 15.726 8.33442 15.8178 8.30863C15.9096 8.28283 16.0057 8.27571 16.1003 8.2877C16.1949 8.29969 16.2862 8.33054 16.3687 8.37842C16.4512 8.4263 16.5232 8.49025 16.5806 8.56647C16.8274 8.88875 16.7691 9.35504 16.4571 9.60532L13.5994 11.8939C13.62 11.995 13.6286 12.0996 13.6286 12.2076C13.6315 12.4242 13.5917 12.6392 13.5114 12.8403C13.4311 13.0414 13.3118 13.2247 13.1605 13.3797C13.0092 13.5346 12.8289 13.6582 12.6297 13.7433C12.4306 13.8284 12.2166 13.8734 12 13.8756C11.7834 13.8734 11.5695 13.8284 11.3703 13.7433C11.1712 13.6582 10.9908 13.5346 10.8395 13.3797C10.6882 13.2247 10.5689 13.0414 10.4886 12.8403C10.4083 12.6392 10.3685 12.4242 10.3714 12.2076C10.3689 11.9913 10.4091 11.7767 10.4896 11.576C10.5701 11.3752 10.6894 11.1924 10.8407 11.0378C10.9919 10.8832 11.1722 10.7599 11.3711 10.675C11.57 10.5901 11.7837 10.5453 12 10.543C12.2571 10.543 12.5057 10.603 12.7217 10.7145L15.5657 8.43961V8.4379Z"/>
</mask>
<path d="M12.0051 0.415039C18.2537 0.415039 23.4703 5.67104 23.4703 12.2179C23.4703 16.0493 21.8057 19.4865 19.0509 21.6516C18.8879 21.7901 18.6819 21.8677 18.468 21.871C18.3599 21.8697 18.2532 21.8471 18.1539 21.8045C18.0546 21.7619 17.9646 21.7001 17.8891 21.6228C17.8137 21.5454 17.7542 21.4539 17.7141 21.3536C17.674 21.2532 17.6541 21.146 17.6554 21.0379C17.6554 20.767 17.7789 20.5253 17.9709 20.3659C18.852 19.6905 19.6166 18.8676 20.2371 17.9316L19.2377 17.3419C19.0709 17.2407 18.9501 17.0785 18.9008 16.8897C18.8515 16.7009 18.8777 16.5003 18.9737 16.3305C19.0199 16.2469 19.0823 16.1735 19.1573 16.1145C19.2322 16.0555 19.3183 16.012 19.4103 15.9868C19.5023 15.9616 19.5985 15.955 19.6931 15.9675C19.7877 15.98 19.8788 16.0113 19.9611 16.0596L20.9623 16.651C21.5101 15.4907 21.8368 14.2385 21.9257 12.9585H20.7771C20.6809 12.9576 20.5857 12.9377 20.4971 12.9C20.4086 12.8622 20.3283 12.8074 20.2609 12.7386C20.1936 12.6698 20.1404 12.5884 20.1046 12.4991C20.0687 12.4097 20.0509 12.3142 20.052 12.2179C20.052 11.8065 20.376 11.4773 20.7754 11.4773H21.924C21.8331 10.1573 21.4954 8.9059 20.9571 7.77275L19.9629 8.36075C19.8805 8.40931 19.7892 8.44086 19.6944 8.45351C19.5996 8.46616 19.5033 8.45967 19.411 8.43441C19.3188 8.40915 19.2326 8.36565 19.1575 8.30647C19.0823 8.2473 19.0199 8.17365 18.9737 8.0899C18.8777 7.92005 18.8515 7.71949 18.9008 7.5307C18.9501 7.34191 19.0709 7.17971 19.2377 7.07847L20.232 6.49218C19.5281 5.43167 18.6301 4.51383 17.5851 3.78704L17.0074 4.81047C16.9613 4.89399 16.8989 4.96743 16.8239 5.02645C16.7489 5.08548 16.6629 5.12889 16.5708 5.15414C16.4788 5.17938 16.3827 5.18594 16.2881 5.17344C16.1935 5.16093 16.1023 5.12961 16.02 5.08132C15.8532 4.98008 15.7324 4.81788 15.6831 4.62909C15.6338 4.4403 15.66 4.23974 15.756 4.0699L16.332 3.04647C15.2049 2.48678 13.9801 2.15087 12.7251 2.05732V3.23332C12.7267 3.32988 12.7092 3.4258 12.6736 3.51555C12.6379 3.6053 12.5849 3.68711 12.5174 3.75627C12.45 3.82543 12.3696 3.88056 12.2808 3.9185C12.192 3.95644 12.0966 3.97643 12 3.97732C11.9039 3.97621 11.8089 3.95616 11.7205 3.91834C11.6321 3.88051 11.5521 3.82565 11.4849 3.75688C11.4177 3.68811 11.3647 3.60678 11.329 3.51754C11.2933 3.42829 11.2754 3.33288 11.2766 3.23675V2.06075C10.0178 2.15231 8.78911 2.4889 7.65943 3.05161L8.232 4.0699C8.32804 4.23974 8.35419 4.4403 8.30491 4.62909C8.25563 4.81788 8.1348 4.98008 7.968 5.08132C7.8858 5.12968 7.79475 5.1611 7.70022 5.17373C7.60568 5.18636 7.50958 5.17994 7.41756 5.15486C7.32555 5.12978 7.23948 5.08654 7.16443 5.02769C7.08939 4.96884 7.02687 4.89556 6.98057 4.81218L6.408 3.79561C5.36743 4.52196 4.47249 5.43725 3.76972 6.4939L4.764 7.08018C5.10857 7.28418 5.22686 7.73675 5.028 8.09161C4.98186 8.17537 4.91938 8.24901 4.84426 8.30819C4.76914 8.36736 4.68292 8.41087 4.59068 8.43612C4.49845 8.46138 4.40209 8.46787 4.30731 8.45522C4.21252 8.44257 4.12124 8.41103 4.03886 8.36247L3.04457 7.77447C2.49445 8.93785 2.16599 10.1936 2.076 11.4773H3.22457C3.62572 11.4773 3.94972 11.8099 3.94972 12.2196C3.95085 12.3159 3.93298 12.4114 3.89713 12.5008C3.86127 12.5901 3.80815 12.6715 3.74079 12.7403C3.67343 12.8091 3.59316 12.864 3.50458 12.9017C3.416 12.9394 3.32085 12.9593 3.22457 12.9602H2.076C2.16686 14.275 2.50457 15.523 3.03943 16.6528L4.03886 16.0613C4.12124 16.0128 4.21252 15.9812 4.30731 15.9686C4.40209 15.9559 4.49845 15.9624 4.59068 15.9877C4.68292 16.0129 4.76914 16.0564 4.84426 16.1156C4.91938 16.1748 4.98186 16.2484 5.028 16.3322C5.12404 16.502 5.15018 16.7026 5.10091 16.8914C5.05163 17.0802 4.9308 17.2424 4.764 17.3436L3.76286 17.935C4.36461 18.8444 5.10969 19.6502 5.96915 20.3213C6.20915 20.467 6.36857 20.7328 6.36857 21.0396C6.36993 21.1478 6.34994 21.2552 6.30973 21.3557C6.26952 21.4562 6.20989 21.5477 6.13425 21.6251C6.05861 21.7025 5.96846 21.7642 5.86894 21.8067C5.76942 21.8492 5.6625 21.8716 5.55429 21.8728C5.36572 21.8728 5.10172 21.7236 4.96286 21.619C2.148 19.4573 0.529716 16.0973 0.529716 12.2179C0.531431 5.66932 5.76 0.415039 12.0051 0.415039ZM15.5657 8.4379C15.6403 8.37838 15.726 8.33442 15.8178 8.30863C15.9096 8.28283 16.0057 8.27571 16.1003 8.2877C16.1949 8.29969 16.2862 8.33054 16.3687 8.37842C16.4512 8.4263 16.5232 8.49025 16.5806 8.56647C16.8274 8.88875 16.7691 9.35504 16.4571 9.60532L13.5994 11.8939C13.62 11.995 13.6286 12.0996 13.6286 12.2076C13.6315 12.4242 13.5917 12.6392 13.5114 12.8403C13.4311 13.0414 13.3118 13.2247 13.1605 13.3797C13.0092 13.5346 12.8289 13.6582 12.6297 13.7433C12.4306 13.8284 12.2166 13.8734 12 13.8756C11.7834 13.8734 11.5695 13.8284 11.3703 13.7433C11.1712 13.6582 10.9908 13.5346 10.8395 13.3797C10.6882 13.2247 10.5689 13.0414 10.4886 12.8403C10.4083 12.6392 10.3685 12.4242 10.3714 12.2076C10.3689 11.9913 10.4091 11.7767 10.4896 11.576C10.5701 11.3752 10.6894 11.1924 10.8407 11.0378C10.9919 10.8832 11.1722 10.7599 11.3711 10.675C11.57 10.5901 11.7837 10.5453 12 10.543C12.2571 10.543 12.5057 10.603 12.7217 10.7145L15.5657 8.43961V8.4379Z" fill="black" stroke="#90A4AE" stroke-width="3.6" mask="url(#path-1-inside-1_7174_9231)"/>
</svg>
